# xmcd
# 
# Track frame offsets:
#     150
#     19810
#     40062
#     64870
#     85187
# 
# Disc length: 1262
# 
# Revision: 1
# Processed by: cddbd v1.5.2PL0 Copyright (c) Steve Scherf et al.
# Submitted via: fre:ac v1.0.17
# 
DISCID=3604ec05
DTITLE=Cynthia and Johnny O - Dream Boy - Dream Girl [CD Single Album)
DYEAR=1990
DGENRE=Freestyle
TTITLE0=Dream Boy - Dream Girl (Radio Freestyle Mix)
TTITLE1=Dream Boy - Dream Girl (Radio Pop Version)
TTITLE2=Dream Boy - Dream Gril (Club Mix)
TTITLE3=Dream Boy - DreamGirl (Instrumental Mix)
TTITLE4=Dream Boy - Dream Girl (Dr. Tony's Bonus)
EXTD=
EXTT0=
EXTT1=
EXTT2=
EXTT3=
EXTT4=
PLAYORDER=
